# xmcd
#
# Track frame offsets:
#	150
#	1351
#	14757
#	32582
#	52604
#	70345
#	85875
#	103440
#	124243
#	143888
#	158072
#	174466
#	195072
#	214546
#	231523
#	248197
#	261025
#	277545
#	288271
#	309207
#
# Disc length: 4334 seconds
#
# Revision: 1
# Processed by: cddbd v1.5.2PL0 Copyright (c) Steve Scherf et al.
# Submitted via: audiograbber 1.83.01
#
DISCID=0910ec14
DTITLE=Aerobic - Chart Attack Step_Aerobic Spring07 CD1
DYEAR=2007
DGENRE=Aerobic
TTITLE0=Intro
TTITLE1=Mika - Grace Kelly - 129bpm
TTITLE2=Nelly Furtado - Say It Right - 129bpm
TTITLE3=Shakira and Beyoncé - Beautiful Liar - 130bpm
TTITLE4=Robbie Williams - She's Madonna - 130bpm
TTITLE5=The Miami Project - Another One Bites The dust - 131bpm
TTITLE6=Justin Timberlake - What Goes Around - 131bpm
TTITLE7=Jojo - Too Little Too Late - 131bpm
TTITLE8=Hillary Duff - With Love - 132bpm
TTITLE9=Beyoncé - Listen - 132bpm
TTITLE10=Sophie Ellis Bextor - Catch You - 133bpm
TTITLE11=Infernal - I Wont be Crying - 134bpm
TTITLE12=Erasure - I Could Fall In Love With You - 135bpm
TTITLE13=Kate Ryan - Alive - 136bpm
TTITLE14=Cascada - Truly Madly Deeply - 137bpm
TTITLE15=Basshunter - Boten Anna - 138bpm
TTITLE16=Final 1 - Beware Of The Dog - 136bpm
TTITLE17=Final 2 - For You - 136bpm
TTITLE18=Jennifer Lopez - Que Hiciste - 115bpm
TTITLE19=Melanie C. - The Moment You Believe - 0bpm
EXTD=
EXTT0=
EXTT1=
EXTT2=
EXTT3=
EXTT4=
EXTT5=
EXTT6=
EXTT7=
EXTT8=
EXTT9=
EXTT10=
EXTT11=
EXTT12=
EXTT13=
EXTT14=
EXTT15=
EXTT16=
EXTT17=
EXTT18=
EXTT19=
PLAYORDER=
